<?xml version="1.0" encoding="utf-8"?>
<!-- Generator: Adobe Illustrator 23.1.0, SVG Export Plug-In . SVG Version: 6.00 Build 0)  -->
<svg version="1.1" id="Layer_1" xmlns="http://www.w3.org/2000/svg" xmlns:xlink="http://www.w3.org/1999/xlink" x="0px" y="0px"
	 viewBox="0 0 342 480" style="enable-background:new 0 0 342 480;" xml:space="preserve">
<style type="text/css">
	.st0{fill:#0170BA;}
	.st1{fill:#29A9DF;}
	.st2{fill:#CFCFCF;}
	.st3{fill:#FFFFFF;}
</style>
<g>
	<path class="st0" d="M-0.1,77.4c114,0,228,0,342,0c-6.3,73.3-12.4,146.6-19,219.9c-3.9,46.8-7.9,93.7-12.1,140.5
		c-24.3,6.7-48.4,14.3-72.7,21c-22.3,6.8-44.9,12.9-67.2,19.6h-0.7c-21.3-6.5-42.7-12.3-64-18.8c-25.1-7-50-14.8-75.1-21.8
		c-3.3-35.1-6.2-70.2-9.1-105.3c-5.5-64.9-11.5-129.7-16.8-194.6c-1.8-19.5-3.1-39.1-5.3-58.6V77.4 M171.5,106.3
		c-0.2,14.1,0.2,28.2-0.2,42.2c-39.1-0.1-78.2,0-117.3,0c0.7,13.7,2.4,27.2,4.3,40.8c36.4,1.4,72.8-0.1,109.2,1.1
		c-31.8,14.8-64.1,28.7-96,43.1c-2.7,1.3-5.7,2.2-8.1,4.1c0.3,15,2.6,29.9,3.6,44.9c19.4-0.1,38.8-0.4,58.2-0.4
		c15.5-0.1,31.1,0.2,46.6-0.1c-0.7,24.7,0.2,49.4-0.5,74.1c-10.5-1.6-20.8-4-31.2-5.9c-8.2-1.9-16.6-2.8-24.7-5.2
		c-1.2-11.8-2-23.7-3-35.6c-2.3-0.7-4.8-0.7-7.2-0.7c-11.7,0.1-23.5,0-35.3,0.1c1.2,22.8,3.1,45.6,6.5,68.1
		c11.6,3.1,23.2,6.2,34.8,9.4c17.7,5,35.7,9.1,53.4,14c2.1,0.5,4.2,1.3,6.4,1.1c1.2,15,0.3,30.1,0.5,45.1c4.1-0.7,8.1-1.7,12.1-3
		c33.6-9.4,67.2-19,100.8-28.6c1.7-13.7,2.5-27.4,3.8-41.1c3.5-41.6,7-83.2,10.7-124.8c4.3-47.6,8-95.2,12.3-142.8
		C264.5,106.3,218,106.2,171.5,106.3z"/>
</g>
<g>
	<path class="st1" d="M171.5,106.3c46.5-0.2,93,0,139.5-0.1c-4.3,47.6-8,95.2-12.3,142.8c-3.7,41.6-7.2,83.2-10.7,124.8
		c-1.3,13.7-2.1,27.4-3.8,41.1c-33.6,9.5-67.1,19.1-100.8,28.6c-4,1.3-8,2.3-12.1,3c-0.2-15,0.7-30.1-0.5-45.1
		c0.3-0.1,0.9-0.2,1.2-0.2c31.3-8.1,62.3-17,93.5-25.4c3.9-45.7,8.3-91.4,11.1-137.3c-26.5,0.1-53,0.1-79.6,0.2
		c-3.9,0-7.7,0-11.6-0.3c14.3-7.6,29.3-13.6,43.9-20.4c14.1-6.6,28.3-12.8,42.4-19.2c2.7-1.3,5.6-2.4,8-4.3c0.9-3.6,0.9-7.3,1.3-11
		c0.8-11.6,2.3-23.1,2.8-34.7c-37.6-0.3-75.1,0-112.7-0.2C171.7,134.5,171.2,120.4,171.5,106.3z"/>
	<path class="st1" d="M171.7,282c18.1-0.3,36.3,0.2,54.4,0.1c-1,19.2-2.6,38.3-3.5,57.5c-11.1,3.8-22.4,6.9-33.6,10.4
		c-6,1.9-12.1,3.4-17.8,6.1C171.9,331.4,170.9,306.7,171.7,282z"/>
</g>
<g>
	<path class="st2" d="M53.9,148.6c39.1,0,78.2-0.2,117.3,0c0.5,44.5-0.1,89,0.4,133.5c-15.5,0.4-31.1,0-46.6,0.1
		c-19.4,0-38.8,0.4-58.2,0.4c-1-15-3.4-29.9-3.6-44.9c2.5-1.8,5.4-2.8,8.1-4.1c32-14.5,64.2-28.4,96-43.1
		c-36.4-1.1-72.8,0.3-109.2-1.1C56.3,175.8,54.6,162.2,53.9,148.6z"/>
	<path class="st2" d="M69.7,308.8c11.8-0.2,23.5-0.1,35.3-0.1c2.4,0,4.9,0,7.2,0.7c1,11.9,1.8,23.7,3,35.6
		c8.1,2.4,16.5,3.4,24.7,5.2c10.4,1.9,20.7,4.3,31.2,5.9c1,15-0.8,30.2,0.9,45.1c-0.3,0.1-0.9,0.2-1.2,0.2c-2.2,0.2-4.3-0.6-6.4-1.1
		c-17.8-4.9-35.7-9.1-53.4-14c-11.6-3.3-23.2-6.3-34.8-9.4C72.9,354.3,70.9,331.6,69.7,308.8z"/>
</g>
<g>
	<path class="st3" d="M171.2,148.6c37.6,0.2,75.1-0.1,112.7,0.2c-0.5,11.6-2,23.1-2.8,34.7c-0.4,3.7-0.3,7.4-1.3,11
		c-2.4,1.9-5.3,3-8,4.3c-14.1,6.5-28.3,12.6-42.4,19.2c-14.7,6.8-29.7,12.8-43.9,20.4c3.8,0.3,7.7,0.3,11.6,0.3
		c26.5-0.1,53,0,79.6-0.2c-2.8,45.8-7.1,91.5-11.1,137.3c-31.2,8.4-62.2,17.3-93.5,25.4c-1.7-15,0.1-30.1-0.9-45.1
		c5.7-2.8,11.8-4.3,17.8-6.1c11.2-3.5,22.5-6.7,33.6-10.4c1-19.2,2.5-38.3,3.5-57.5c-18.1,0.1-36.3-0.4-54.4-0.1
		C171.1,237.5,171.7,193.1,171.2,148.6z"/>
</g>
</svg>
