<?xml version="1.0" encoding="utf-8"?>
<!-- Generator: Adobe Illustrator 23.1.0, SVG Export Plug-In . SVG Version: 6.00 Build 0)  -->
<svg version="1.1" id="Layer_1" xmlns="http://www.w3.org/2000/svg" xmlns:xlink="http://www.w3.org/1999/xlink" x="0px" y="0px"
	 viewBox="0 0 512 512" style="enable-background:new 0 0 512 512;" xml:space="preserve">
<style type="text/css">
	.st0{fill:#E34F26;}
	.st1{fill:#EF652A;}
	.st2{fill:#EBEBEB;}
	.st3{fill:#FFFFFF;}
</style>
<title>HTML5 Logo Badge</title>
<path class="st0" d="M97.3,468.3L62,81.3h388l-35.3,387L255.6,512"/>
<path class="st1" d="M256.4,478.3l128.2-34.5l30.1-331.5H256.4"/>
<path class="st2" d="M256.4,256.3h-64.5l-4.3-48.8h68.8v-47.1h-0.9H134.3l0.9,12.6l12,131.2h109.3V256.3z M256.4,379.9h-0.9
	l-54.2-14.3l-3.4-37.9h-25.8h-22.4l6,74.9l99.8,26.9h0.9V379.9z"/>
<path class="st3" d="M255.6,256.3v48h60.2l-6,61.4l-54.2,14.3v49.6l99.8-26.9l0.9-8.4l11.2-125.3l1.7-12.6h-13.8H255.6z
	 M255.6,160.4v29.4v17.7l0,0h117.9l0,0l0,0l0.9-10.1l2.6-24.4l0.9-12.6H255.6z"/>
</svg>
