<?xml version="1.0" encoding="utf-8"?>
<!-- Generator: Adobe Illustrator 23.1.0, SVG Export Plug-In . SVG Version: 6.00 Build 0)  -->
<svg version="1.1" id="Layer_1" xmlns="http://www.w3.org/2000/svg" xmlns:xlink="http://www.w3.org/1999/xlink" x="0px" y="0px"
	 viewBox="0 0 85 85" style="enable-background:new 0 0 85 85;" xml:space="preserve">
<style type="text/css">
	.st0{fill:#FFFFFF;}
	.st1{fill:#D4B830;}
	.st2{opacity:0.986;fill:#EBEBEB;fill-opacity:0;enable-background:new    ;}
	.st3{opacity:0.986;fill:#EBEBEB;fill-opacity:0.9216;enable-background:new    ;}
	.st4{fill:#FDD83C;}
</style>
<polygon class="st0" points="10.7,14.8 16.3,77 41.2,84 66.2,77 72,14.8 "/>
<g>
	<g id="g5193_1_" transform="translate(4.988 -113.385)">
		<path id="path5113_1_" class="st1" d="M10.6,191.2l-5.8-64h63.1l-5.9,64l-25.8,7.2L10.6,191.2z M57.3,187.7l4.9-54.9H36.3
			l0.2,60.5L57.3,187.7z M33.9,140.9h-6.2l-0.1,32.9l-12.2-3.4v7.5l18.5,4.9L33.9,140.9L33.9,140.9z"/>
		<path id="path5159_1_" class="st2" d="M31.8,182.3c-0.8-0.3-4.8-1.3-8.9-2.4l-7.4-2v-3.7c0-3.6,0-3.7,0.3-3.6
			c0.2,0.1,2.9,0.8,6,1.7l5.7,1.5l0.1-16.3l0.1-16.3h6.2v20.9c0,16.5-0.1,20.9-0.3,20.9C33.5,182.7,32.6,182.5,31.8,182.3
			L31.8,182.3z"/>
		<path id="path5157_1_" class="st3" d="M15.4,178v-7.5c0,0,7.8,2.2,12.2,3.3l0.1-32.8h6.2v42L15.4,178L15.4,178z"/>
		<path id="path5117_1_" class="st4" d="M36.3,132.9h25.8l-4.9,54.9l-20.9,5.6V132.9z M55.9,178.5l1.7-20.5l-12.5,1.4v-11l13.4-0.1
			l0.5-7.5l-20.2,0.1l0.3,27.2l12.2-2.1l-0.2,6l-12.4,3.4l0.1,7.5L55.9,178.5L55.9,178.5z"/>
	</g>
</g>
</svg>
