<?xml version="1.0" encoding="utf-8"?>
<!-- Generator: Adobe Illustrator 23.1.0, SVG Export Plug-In . SVG Version: 6.00 Build 0)  -->
<svg version="1.1" id="Layer_1" xmlns="http://www.w3.org/2000/svg" xmlns:xlink="http://www.w3.org/1999/xlink" x="0px" y="0px"
	 viewBox="0 0 841.9 595.3" style="enable-background:new 0 0 841.9 595.3;" xml:space="preserve">
<style type="text/css">
	.st0{fill:none;stroke:#515251;stroke-width:11;stroke-miterlimit:10;}
	.st1{fill:#D2D2D1;}
	.st2{fill:#FFFFFF;}
</style>
<g>
	
		<image style="overflow:visible;" width="1903" height="961" xlink:href="../../1.PNG"  transform="matrix(0.2317 0 0 0.3087 2.6744 -103.2627)">
	</image>
	<g>
		<path class="st0" d="M748.1,492.8H121.5c-6.6,0-12-5.4-12-12V65c0-6.6,5.4-12,12-12h626.6c6.6,0,12,5.4,12,12v415.8
			C760.1,487.4,754.7,492.8,748.1,492.8z"/>
		<path class="st1" d="M817.7,533.9H44.3c-1.7,0-3-1.4-3-3v-15.2c0-1.7,1.4-3,3-3h773.4c1.7,0,3,1.4,3,3v15.2
			C820.8,532.5,819.4,533.9,817.7,533.9z"/>
		<ellipse class="st2" cx="433.6" cy="51.8" rx="4.6" ry="5.3"/>
	</g>
</g>
</svg>
