<?xml version="1.0" encoding="utf-8"?>
<!-- Generator: Adobe Illustrator 23.1.0, SVG Export Plug-In . SVG Version: 6.00 Build 0)  -->
<svg version="1.1" id="Layer_1" xmlns="http://www.w3.org/2000/svg" xmlns:xlink="http://www.w3.org/1999/xlink" x="0px" y="0px"
	 viewBox="0 0 841.9 595.3" style="enable-background:new 0 0 841.9 595.3;" xml:space="preserve">
<style type="text/css">
	.st0{fill:none;stroke:#515251;stroke-width:11;stroke-miterlimit:10;}
	.st1{fill:#D2D2D1;}
	.st2{fill:#FFFFFF;}
	.st3{fill:#515251;}
	.st4{fill:#F4F4F5;}
</style>
<g>
	
		<image style="overflow:visible;" width="1903" height="961" xlink:href="../../1.PNG"  transform="matrix(0.2317 0 0 0.3087 2.6744 -103.2627)">
	</image>
	<g>
		<path class="st0" d="M480.6,379.3H101.1c-6.6,0-12-5.4-12-12v-232c0-6.6,5.4-12,12-12h379.5c6.6,0,12,5.4,12,12v232
			C492.6,373.9,487.2,379.3,480.6,379.3z"/>
		<path class="st1" d="M527.2,403.3H49.8c-1.7,0-3-1.4-3-3v-6.3c0-1.7,1.4-3,3-3h477.4c1.7,0,3,1.4,3,3v6.3
			C530.2,401.9,528.8,403.3,527.2,403.3z"/>
		<ellipse class="st2" cx="290.1" cy="122.6" rx="2.9" ry="3.1"/>
	</g>
</g>
<g>
	<g>
		<g>
			<path class="st3" d="M734.2,403.1H571.4c-6.6,0-12-5.4-12-12V128.5c0-6.6,5.4-12,12-12h162.8c6.6,0,12,5.4,12,12v262.6
				C746.2,397.7,740.8,403.1,734.2,403.1z"/>
			<rect x="569.6" y="138.8" class="st4" width="165.3" height="240.3"/>
			<ellipse class="st4" cx="649.6" cy="122.4" rx="2.4" ry="2"/>
			<path class="st4" d="M677.5,130.9H623c-0.6,0-1-0.5-1-1v-0.7c0-0.6,0.5-1,1-1h54.5c0.6,0,1,0.5,1,1v0.7
				C678.6,130.4,678.1,130.9,677.5,130.9z"/>
		</g>
	</g>
	
		<image style="overflow:visible;" width="360" height="639" xlink:href="../../2.PNG"  transform="matrix(0.5084 0 0 0.4587 647.2991 -77.537)">
	</image>
</g>
</svg>
