<?xml version="1.0" encoding="utf-8"?>
<!-- Generator: Adobe Illustrator 23.1.0, SVG Export Plug-In . SVG Version: 6.00 Build 0)  -->
<svg version="1.1" id="Layer_1" xmlns="http://www.w3.org/2000/svg" xmlns:xlink="http://www.w3.org/1999/xlink" x="0px" y="0px"
	 viewBox="0 0 841.9 595.3" style="enable-background:new 0 0 841.9 595.3;" xml:space="preserve">
<style type="text/css">
	.st0{fill:#515251;}
	.st1{fill:#F4F4F5;}
</style>
<g>
	<g>
		<g>
			<path class="st0" d="M575.7,540.2H280.1c-6.6,0-12-5.4-12-12V67.1c0-6.6,5.4-12,12-12h295.6c6.6,0,12,5.4,12,12v461.1
				C587.7,534.8,582.3,540.2,575.7,540.2z"/>
			<rect x="285.5" y="92.8" class="st1" width="282.8" height="406.6"/>
			<ellipse class="st1" cx="422.4" cy="65.2" rx="4.1" ry="3.4"/>
			<path class="st1" d="M470.9,79.5h-94.8c-0.6,0-1-0.5-1-1v-2.6c0-0.6,0.5-1,1-1h94.8c0.6,0,1,0.5,1,1v2.6
				C472,79,471.5,79.5,470.9,79.5z"/>
		</g>
	</g>
	
		<image style="overflow:visible;" width="360" height="639" xlink:href="../../2.PNG"  transform="matrix(0.5084 0 0 0.4587 647.2991 -77.537)">
	</image>
</g>
</svg>
